<svg width="58.371498" height="20.424255" viewBox="0 0 58.371498 20.424255" fill="none" version="1.1" xmlns="http://www.w3.org/2000/svg" xmlns:svg="http://www.w3.org/2000/svg">
  <g clip-path="url(#clip0_2108_28027)" transform="translate(0,-0.74072244)">
    <path d="m 47.8545,20.7669 c -0.0857,0 -0.1553,-0.0696 -0.1553,-0.1553 V 1.90739 c 0,-0.07364 0.0518,-0.13714 0.1239,-0.15205 l 3.2667,-0.67541 c 0.0964,-0.01992 0.1868,0.05366 0.1868,0.15205 V 20.6116 c 0,0.0857 -0.0696,0.1553 -0.1554,0.1553 z" fill="currentColor" />
    <path d="m 6.81919,21.163 c -1.30422,0 -2.4687,-0.3168 -3.49344,-0.9502 C 2.30101,19.5793 1.49053,18.7129 0.894321,17.6136 0.298106,16.5144 0,15.2661 0,13.8686 0,12.4713 0.298106,11.2323 0.894321,10.1517 1.49053,9.05238 2.30101,8.19532 3.32575,7.58047 4.35049,6.947 5.51497,6.63026 6.81919,6.63026 c 1.04337,0 1.95634,0.19563 2.73884,0.58689 0.62857,0.31427 1.16097,0.7307 1.59707,1.24929 0.0983,0.11683 0.3034,0.05039 0.3034,-0.10227 V 1.57145 c 0,-0.07363 0.0517,-0.13714 0.1238,-0.15205 l 3.2668,-0.675406 c 0.0963,-0.019921 0.1867,0.053659 0.1867,0.15205 V 20.6723 c 0,0.0858 -0.0696,0.1553 -0.1553,0.1553 h -2.9032 c -0.0741,0 -0.1379,-0.0525 -0.1523,-0.1253 L 11.5272,19.1921 C 11.501,19.0592 11.3267,19.0196 11.2399,19.1237 10.8231,19.6238 10.2996,20.0706 9.6698,20.4642 8.94321,20.93 7.99298,21.163 6.81919,21.163 Z m 0.75458,-3.1302 c 1.15512,0 2.09603,-0.3819 2.82273,-1.1458 0.7452,-0.7825 1.1178,-1.7793 1.1178,-2.9904 0,-1.2111 -0.3726,-2.1985 -1.1178,-2.9624 C 9.6698,10.1517 8.72889,9.76037 7.57377,9.76037 c -1.13653,0 -2.07744,0.38193 -2.8227,1.14583 -0.74527,0.7639 -1.1179,1.7514 -1.1179,2.9624 0,1.2111 0.37263,2.2079 1.1179,2.9904 0.74526,0.7825 1.68617,1.1738 2.8227,1.1738 z" fill="currentColor" />
    <path d="m 23.7567,21.165 c -1.3974,0 -2.6364,-0.2981 -3.717,-0.8943 -1.0807,-0.5962 -1.9284,-1.4347 -2.5433,-2.5153 -0.6148,-1.0806 -0.9222,-2.3289 -0.9222,-3.7449 0,-1.4347 0.2981,-2.711 0.8943,-3.8288 0.6148,-1.11795 1.4532,-1.98432 2.5153,-2.59917 1.0806,-0.63347 2.3476,-0.95021 3.8008,-0.95021 1.3601,0 2.5619,0.29811 3.6053,0.89433 1.0433,0.59621 1.8538,1.41599 2.4314,2.45937 0.5962,1.02468 0.8943,2.17058 0.8943,3.43748 0,0.205 -0.0093,0.4193 -0.0279,0.6428 0,0.1791 -0.006,0.3642 -0.0179,0.5553 -0.0052,0.0809 -0.0728,0.1434 -0.1538,0.1434 H 20.2898 c -0.0899,0 -0.1613,0.0764 -0.1523,0.1659 0.0999,1.0019 0.4678,1.7944 1.1039,2.3774 0.6894,0.6148 1.5185,0.9222 2.4873,0.9222 0.7267,0 1.3322,-0.1584 1.8166,-0.4751 0.4741,-0.316 0.8324,-0.7148 1.0748,-1.1964 0.0271,-0.0539 0.0818,-0.0891 0.1422,-0.0891 h 3.3258 c 0.1039,0 0.1785,0.1 0.1457,0.1986 -0.2659,0.7985 -0.6829,1.5335 -1.251,2.2048 -0.5961,0.708 -1.3415,1.267 -2.2357,1.6769 -0.8757,0.4098 -1.8725,0.6148 -2.9904,0.6148 z M 23.7846,9.53888 c -0.8756,0 -1.6489,0.25149 -2.3196,0.75452 -0.6295,0.4547 -1.0456,1.1389 -1.2484,2.0529 -0.0211,0.0948 0.0523,0.183 0.1494,0.183 h 6.5514 c 0.0894,0 0.1607,-0.0756 0.1517,-0.1646 C 26.9847,11.5286 26.6537,10.8568 26.0763,10.3494 25.4615,9.80904 24.6976,9.53888 23.7846,9.53888 Z" fill="currentColor" />
    <path d="m 39.3192,21.165 c -1.3974,0 -2.6364,-0.2981 -3.717,-0.8943 -1.0807,-0.5962 -1.9284,-1.4347 -2.5432,-2.5153 -0.6149,-1.0806 -0.9223,-2.3289 -0.9223,-3.7449 0,-1.4347 0.2981,-2.711 0.8943,-3.8288 0.6148,-1.11795 1.4532,-1.98432 2.5153,-2.59917 1.0806,-0.63347 2.3476,-0.95021 3.8008,-0.95021 1.3601,0 2.5619,0.29811 3.6053,0.89433 1.0433,0.59621 1.8538,1.41599 2.4314,2.45937 0.5962,1.02468 0.8943,2.17058 0.8943,3.43748 0,0.205 -0.0093,0.4193 -0.0279,0.6428 0,0.1791 -0.006,0.3642 -0.0179,0.5553 -0.0052,0.0809 -0.0728,0.1434 -0.1538,0.1434 H 35.8523 c -0.0899,0 -0.1613,0.0764 -0.1523,0.1659 0.0999,1.0019 0.4678,1.7944 1.1039,2.3774 0.6894,0.6148 1.5185,0.9222 2.4873,0.9222 0.7267,0 1.3322,-0.1584 1.8166,-0.4751 0.4741,-0.316 0.8324,-0.7148 1.0748,-1.1964 0.0271,-0.0539 0.0818,-0.0891 0.1422,-0.0891 h 3.3258 c 0.1039,0 0.1785,0.1 0.1457,0.1986 -0.2659,0.7985 -0.6829,1.5335 -1.251,2.2048 -0.5961,0.708 -1.3415,1.267 -2.2357,1.6769 -0.8757,0.4098 -1.8725,0.6148 -2.9904,0.6148 z M 39.3471,9.53888 c -0.8756,0 -1.6489,0.25149 -2.3196,0.75452 -0.6294,0.4547 -1.0456,1.1389 -1.2484,2.0529 -0.0211,0.0948 0.0523,0.183 0.1494,0.183 h 6.5514 c 0.0894,0 0.1607,-0.0756 0.1517,-0.1646 C 42.5472,11.5286 42.2162,10.8568 41.6388,10.3494 41.024,9.80904 40.2601,9.53888 39.3471,9.53888 Z" fill="currentColor" />
    <path d="m 55.9631,20.7714 c 1.3301,0 2.4084,-1.0783 2.4084,-2.4084 0,-1.3301 -1.0783,-2.4084 -2.4084,-2.4084 -1.3301,0 -2.4084,1.0783 -2.4084,2.4084 0,1.3301 1.0783,2.4084 2.4084,2.4084 z" fill="currentColor" />
  </g>
</svg>