<svg viewBox="0 0 128.54601 34.450218" fill="none" width="128.54601" height="34.450218" version="1.1" xmlns="http://www.w3.org/2000/svg" xmlns:svg="http://www.w3.org/2000/svg">
  <path d="m 44.936,28.775749 v -14.555 h 0.259 l 10.595,14.555 h 3.334 V 7.4007487 H 55.419 V 21.918749 h -0.26 L 44.566,7.4017487 H 41.232 V 28.775749 h 3.705 z m 24.671,0.33 c 4.89,0 7.89,-3.153 7.89,-8.432 0,-5.243 -3,-8.433 -7.89,-8.433 -4.853,0 -7.89,3.19 -7.89,8.433 0.037,5.279 3,8.432 7.89,8.432 z m 0,-3.08 c -2.593,0 -4.075,-1.943 -4.075,-5.352 0,-3.373 1.482,-5.353 4.075,-5.353 2.593,0 4.075,1.98 4.075,5.352 0,3.41 -1.482,5.353 -4.075,5.353 z M 80.87,8.6117487 v 4.0700003 h -2.594 v 2.932 h 2.594 v 8.836 c 0,3.153 1.481,4.4 5.26,4.4 0.704,0 1.408,-0.074 1.963,-0.184 v -2.86 c -0.444,0.037 -0.74,0.074 -1.26,0.074 -1.555,0 -2.259,-0.697 -2.259,-2.31 v -7.956 h 3.52 v -2.933 h -3.52 V 8.6107487 H 80.87 Z m 9.446,20.1640003 h 3.704 v -16.205 H 90.316 Z M 92.168,9.8947487 c 1.223,0 2.223,-0.99 2.223,-2.2 0,-1.247 -1,-2.237 -2.223,-2.237 -1.222,0 -2.223,0.99 -2.223,2.237 0,1.21 1,2.2 2.223,2.2 z M 104.17,29.104749 c 4.89,0 7.891,-3.152 7.891,-8.431 0,-5.243 -3.001,-8.433 -7.891,-8.433 -4.852,0 -7.89,3.19 -7.89,8.433 0,5.279 2.964,8.432 7.89,8.432 z m 0,-3.079 c -2.593,0 -4.074,-1.943 -4.074,-5.352 0,-3.373 1.481,-5.353 4.074,-5.353 2.557,0 4.075,1.98 4.075,5.352 -0.037,3.41 -1.518,5.353 -4.075,5.353 z m 10.076,2.75 h 3.705 v -9.422 c 0,-2.383 1.408,-3.887 3.593,-3.887 2.26,0 3.297,1.247 3.297,3.703 v 9.606 h 3.705 v -10.486 c 0,-3.886 -2.001,-6.049 -5.631,-6.049 -2.445,0 -4.075,1.1 -4.853,2.933 h -0.259 v -2.603 h -3.594 c 0.037,0 0.037,16.205 0.037,16.205 z" fill="currentColor" />
  <path d="m 5.712,6.0337487 c 1.078,0.87 1.468,0.8 3.487,0.663 l 19.017,-1.144 c 0.413,0 0.069,-0.412 -0.069,-0.458 l -3.165,-2.266 c -0.597,-0.458 -1.423,-1.007 -2.96,-0.87 l -18.397,1.35 c -0.666,0.07 -0.803,0.413 -0.528,0.665 z M 6.86,10.450749 v 19.96 c 0,1.076 0.528,1.465 1.743,1.396 l 20.899,-1.213 c 1.216,-0.069 1.353,-0.801 1.353,-1.671 V 9.1007487 c 0,-0.87 -0.344,-1.35 -1.078,-1.282 l -21.84,1.282 c -0.803,0.068 -1.078,0.48 -1.078,1.3500003 z m 20.623,1.076 c 0.138,0.595 0,1.213 -0.596,1.282 l -1.01,0.206 v 14.74 c -0.871,0.459 -1.674,0.733 -2.363,0.733 -1.078,0 -1.353,-0.343 -2.156,-1.35 l -6.584,-10.323 v 9.98 l 2.088,0.457 c 0,0 0,1.213 -1.675,1.213 l -4.634,0.275 c -0.137,-0.275 0,-0.938 0.46,-1.076 l 1.215,-0.343 v -13.185 l -1.675,-0.137 c -0.137,-0.595 0.207,-1.465 1.147,-1.534 l 4.978,-0.343 6.86,10.438 v -9.225 l -1.744,-0.206 c -0.138,-0.732 0.413,-1.282 1.078,-1.35 z M 2.088,1.4787487 21.242,0.08074868 c 2.34,-0.206 2.96,-0.068 4.428,1.00700002 l 6.102,4.28 c 1.01,0.733 1.353,0.94 1.353,1.74 V 30.615749 c 0,1.465 -0.527,2.335 -2.408,2.472 l -22.23,1.35 c -1.421,0.07 -2.087,-0.137 -2.82,-1.075 l -4.52,-5.837 C 0.344,26.450749 0,25.649749 0,24.710749 V 3.8127487 c 0,-1.212 0.55,-2.197 2.088,-2.334 z" fill="currentColor" clipRule="evenodd" fill-rule="evenodd" />
</svg>