<svg width="95.48391" height="21.60638" viewBox="0 0 95.48391 21.60638" fill="none" version="1.1" xmlns="http://www.w3.org/2000/svg" xmlns:svg="http://www.w3.org/2000/svg">
  <g transform="translate(-1.13879,-1.13232)">
    <path d="m 48.9883,6.53393 c -3.7117,0 -6.3881,2.43072 -6.3881,6.07677 0,3.6461 3.0092,6.0768 6.7244,6.0768 2.2424,0 4.2194,-0.8912 5.4431,-2.3936 l -2.572,-1.4922 c -0.6791,0.7462 -1.7113,1.1817 -2.8711,1.1817 -1.6105,0 -2.9788,-0.8441 -3.4866,-2.1945 h 9.4207 c 0.0738,-0.3781 0.1177,-0.7697 0.1177,-1.1815 0,-3.64275 -2.6729,-6.07347 -6.3881,-6.07347 z m -3.1772,4.89517 c 0.4202,-1.347 1.5701,-2.19437 3.1772,-2.19437 1.6104,0 2.7603,0.84737 3.1773,2.19437 z M 45.0513,2.82032 35.7348,19.0251 26.4152,2.82032 h 3.4931 L 35.7316,12.9483 41.5547,2.82032 Z M 13.5618,1.13232 25.9848,22.7387 H 1.13879 Z M 68.892,12.6107 c 0,2.0256 1.318,3.376 3.3621,3.376 1.3853,0 2.4242,-0.6313 2.9587,-1.661 l 2.5821,1.4956 c -1.0692,1.7893 -3.0729,2.8662 -5.5408,2.8662 -3.7152,0 -6.3879,-2.4307 -6.3879,-6.0768 0,-3.64605 2.6762,-6.07677 6.3879,-6.07677 2.4679,0 4.4683,1.07695 5.5408,2.86621 L 75.2128,10.8957 C 74.6783,9.86604 73.6394,9.23473 72.2541,9.23473 c -2.0407,0 -3.3621,1.35037 -3.3621,3.37597 z M 96.6227,2.82032 V 18.3499 H 93.5969 V 2.82032 Z M 85.1915,6.53393 c -3.7118,0 -6.3879,2.43072 -6.3879,6.07677 0,3.6461 3.0125,6.0768 6.7242,6.0768 2.2424,0 4.2194,-0.8912 5.4431,-2.3936 l -2.572,-1.4922 c -0.6791,0.7462 -1.7113,1.1817 -2.8711,1.1817 -1.6106,0 -2.9788,-0.8441 -3.4867,-2.1945 h 9.4208 c 0.0738,-0.3781 0.1175,-0.7697 0.1175,-1.1815 0,-3.64275 -2.6727,-6.07347 -6.3879,-6.07347 z m -3.1773,4.89517 c 0.4205,-1.347 1.5669,-2.19437 3.1773,-2.19437 1.6104,0 2.7603,0.84737 3.1773,2.19437 z M 64.8575,6.87153 V 10.1429 C 64.5214,10.045 64.1648,9.97745 63.7816,9.97745 c -1.9534,0 -3.3621,1.35035 -3.3621,3.37595 v 4.9965 H 57.3937 V 6.87153 h 3.0258 v 3.10592 c 0,-1.71501 1.9869,-3.10592 4.438,-3.10592 z" fill="currentColor" />
  </g>
</svg>