<svg width="487" height="473" viewBox="0 0 487 473" fill="none" xmlns="http://www.w3.org/2000/svg">
<path fill-rule="evenodd" clipRule="evenodd" d="M368.917 179.056C368.885 142.126 360.637 119.99 341.272 88.8074C330.606 71.6327 324.684 66.21 308.096 49.2615C292.212 33.0312 247.222 11.0713 225.156 33.669C202.837 61.842 219.576 90.1614 236.206 112.758C239.816 117.38 243.131 121.38 246.149 124.982C234.464 116.573 221.611 108.879 209.571 104.958C174.642 93.5835 151.129 94.7384 115.581 103.871C96.0016 108.9 89.0199 112.963 67.8002 123.8C52.8635 131.428 12.6273 170.986 27.0842 199.346C45.1862 228.487 78.7522 222.2 105.326 213.067C113.794 209.879 120.647 206.916 126.662 204.429C116.013 212.547 105.858 221.752 98.978 231.289C77.4235 261.17 71.2502 284.009 68.9043 320.819C67.6123 341.093 69.298 349.024 72.9928 372.662C78.1827 396.967 100.583 439.995 131.878 434.936C162.507 428.099 169.466 392.597 169.037 364.367C168.819 359.402 168.515 354.919 168.204 350.81C172.226 361.444 177.108 371.661 182.938 379.713C204.546 409.556 224.243 422.516 258.342 436.134C272.496 441.786 285.146 444.473 308.649 448.245C340.322 451.907 380.874 442.673 385.759 411.187C387.984 374.993 357.321 362.166 330.482 353.852C327.248 352.952 324.212 352.159 321.35 351.438C331.805 350.788 342.048 349.281 350.782 346.419C385.691 334.981 404.038 320.153 427.458 291.759C440.357 276.12 443.63 268.708 454.461 247.401C464.976 221.163 471.508 176.624 443.232 162.224C409.982 149.743 388.069 174.266 371.91 197.358C369.152 201.552 366.753 205.399 364.582 208.942C367.189 198.68 368.925 188.35 368.917 179.056ZM250.741 205.083C246.625 201.749 244.245 198.608 240.508 195.758C232.93 208.297 220.536 220.738 207.906 229.034C202.266 232.736 198.571 234.858 194.02 238.098C203.453 249.054 211.789 264.367 215.766 279.123C217.591 285.904 217.943 288.665 219.725 294.237C234.343 287.262 252.575 284.959 268.753 285.765C274.474 286.053 278.627 287.27 283.403 287.45C280.429 271.851 280.45 256.132 286.704 239.616C288.438 235.042 292.042 228.943 293.489 224.809C279.138 222.17 263.255 215.212 250.741 205.083Z" fill="#335CFF"/>
<path d="M225.438 33.915C236.324 22.7828 252.899 22.5858 268.839 27.2646C284.276 31.796 298.986 40.8683 307.067 48.7637L307.828 49.5234C323.9 65.9449 329.933 71.522 339.969 87.4326L340.953 89.0049C350.628 104.584 357.514 117.884 361.987 131.891C366.46 145.894 368.526 160.621 368.542 179.056L368.538 179.927C368.442 188.951 366.74 198.925 364.219 208.85L364.901 209.138C367.069 205.6 369.464 201.759 372.217 197.572L372.218 197.573C380.293 186.033 389.776 174.181 401.364 166.767C412.925 159.369 426.586 156.383 443.078 162.566C457.028 169.68 462.434 184.24 463.019 200.387C463.603 216.529 459.359 234.163 454.118 247.246C443.63 267.879 440.246 275.447 428.348 290.081L427.169 291.521C415.468 305.706 405.049 316.485 393.207 325.145C381.737 333.532 368.919 339.941 352.287 345.524L350.666 346.062C341.973 348.911 331.764 350.414 321.326 351.063L321.258 351.802C323.403 352.342 325.645 352.923 327.995 353.559L330.381 354.213C343.795 358.368 358.103 363.636 368.782 372.354C379.438 381.054 386.483 393.192 385.384 411.146C382.963 426.703 371.74 436.793 357.112 442.548C342.479 448.305 324.494 449.697 308.706 447.873C285.944 444.22 273.393 441.591 259.8 436.306L258.48 435.785C241.445 428.982 228.028 422.351 216.177 413.705C204.698 405.331 194.673 395.055 184.252 380.878L183.242 379.493C177.439 371.478 172.571 361.295 168.555 350.677L167.83 350.838C168.102 354.432 168.369 358.31 168.577 362.546L168.662 364.384C168.875 378.471 167.243 394.342 161.758 407.53C156.276 420.709 146.962 431.181 131.805 434.567C116.367 437.056 103.07 427.701 92.9424 414.581C82.8221 401.47 75.9473 384.695 73.3613 372.593C69.7826 349.699 68.0962 341.576 69.166 322.704L69.2783 320.843C70.4503 302.452 72.5775 287.575 77.0947 273.571C81.47 260.008 88.0935 247.247 98.2852 232.902L99.2822 231.509C106.131 222.015 116.253 212.836 126.89 204.728L126.519 204.083C120.874 206.417 114.507 209.163 106.762 212.121L105.204 212.712C91.9291 217.275 76.9519 221.109 63.0527 220.185C49.1805 219.262 36.3873 213.603 27.4111 199.162C20.2963 185.187 26.6232 168.381 36.7266 154.015C46.505 140.111 59.7146 128.651 67.2588 124.512L67.9707 124.134C88.5308 113.634 95.6926 109.511 113.879 104.701L115.674 104.233C133.434 99.671 148.165 97.108 162.809 97.0996C176.991 97.0916 191.108 99.4806 207.828 104.792L209.455 105.315C221.44 109.219 234.257 116.886 245.93 125.286L246.437 124.741C243.796 121.591 240.931 118.137 237.84 114.23L236.501 112.527C228.191 101.234 219.891 88.5583 216.438 75.2109C212.991 61.8903 214.369 47.8952 225.438 33.915ZM240.188 195.563C232.877 207.66 221.055 219.677 208.879 227.934L207.7 228.721C202.082 232.408 198.359 234.549 193.803 237.793L193.468 238.031L193.736 238.343C202.84 248.916 210.922 263.57 215.021 277.841L215.404 279.221C217.218 285.958 217.585 288.775 219.368 294.351L219.499 294.761L219.887 294.575C233.977 287.852 251.465 285.483 267.216 286.073L268.734 286.14C271.573 286.282 274.024 286.656 276.375 287.019C278.722 287.381 280.975 287.734 283.389 287.825L283.859 287.843L283.771 287.38C280.853 272.073 280.832 256.673 286.768 240.52L287.055 239.749C287.914 237.483 289.238 234.833 290.54 232.214C291.835 229.607 293.11 227.026 293.843 224.933L293.987 224.519L293.557 224.439C279.712 221.894 264.428 215.309 252.155 205.728L250.977 204.791C248.936 203.138 247.324 201.532 245.746 199.972C244.17 198.414 242.625 196.901 240.735 195.46L240.403 195.206L240.188 195.563Z" stroke="#EBF1FF" stroke-opacity="0.1" stroke-width="0.750123"/>
<g filter="url(#filter0_iii_234_66)">
<path fill-rule="evenodd" clipRule="evenodd" d="M368.917 179.056C368.885 142.126 360.637 119.99 341.272 88.8074C330.606 71.6327 324.684 66.21 308.096 49.2615C292.212 33.0312 247.222 11.0713 225.156 33.669C202.837 61.842 219.576 90.1614 236.206 112.758C239.816 117.38 243.131 121.38 246.149 124.982C234.464 116.573 221.611 108.879 209.571 104.958C174.642 93.5835 151.129 94.7384 115.581 103.871C96.0016 108.9 89.0199 112.963 67.8002 123.8C52.8635 131.428 12.6273 170.986 27.0842 199.346C45.1862 228.487 78.7522 222.2 105.326 213.067C113.794 209.879 120.647 206.916 126.662 204.429C116.013 212.547 105.858 221.752 98.978 231.289C77.4235 261.17 71.2502 284.009 68.9043 320.819C67.6123 341.093 69.298 349.024 72.9928 372.662C78.1827 396.967 100.583 439.995 131.878 434.936C162.507 428.099 169.466 392.597 169.037 364.367C168.819 359.402 168.515 354.919 168.204 350.81C172.226 361.444 177.108 371.661 182.938 379.713C204.546 409.556 224.243 422.516 258.342 436.134C272.496 441.786 285.146 444.473 308.649 448.245C340.322 451.907 380.874 442.673 385.759 411.187C387.984 374.993 357.321 362.166 330.482 353.852C327.248 352.952 324.212 352.159 321.35 351.438C331.805 350.788 342.048 349.281 350.782 346.419C385.691 334.981 404.038 320.153 427.458 291.759C440.357 276.12 443.63 268.708 454.461 247.401C464.976 221.163 471.508 176.624 443.232 162.224C409.982 149.743 388.069 174.266 371.91 197.358C369.152 201.552 366.753 205.399 364.582 208.942C367.189 198.68 368.925 188.35 368.917 179.056ZM250.741 205.083C246.625 201.749 244.245 198.608 240.508 195.758C232.93 208.297 220.536 220.738 207.906 229.034C202.266 232.736 198.571 234.858 194.02 238.098C203.453 249.054 211.789 264.367 215.766 279.123C217.591 285.904 217.943 288.665 219.725 294.237C234.343 287.262 252.575 284.959 268.753 285.765C274.474 286.053 278.627 287.27 283.403 287.45C280.429 271.851 280.45 256.132 286.704 239.616C288.438 235.042 292.042 228.943 293.489 224.809C279.138 222.17 263.255 215.212 250.741 205.083Z" fill="url(#paint0_linear_234_66)" fill-opacity="0.2"/>
</g>
<g filter="url(#filter1_iif_234_66)">
<path fill-rule="evenodd" clipRule="evenodd" d="M368.917 179.056C368.885 142.126 360.637 119.99 341.272 88.8074C330.606 71.6327 324.684 66.21 308.096 49.2615C292.212 33.0312 247.222 11.0713 225.156 33.669C202.837 61.842 219.576 90.1614 236.206 112.758C239.816 117.38 243.131 121.38 246.149 124.982C234.464 116.573 221.611 108.879 209.571 104.958C174.642 93.5835 151.129 94.7384 115.581 103.871C96.0016 108.9 89.0199 112.963 67.8002 123.8C52.8635 131.428 12.6273 170.986 27.0842 199.346C45.1862 228.487 78.7522 222.2 105.326 213.067C113.794 209.879 120.647 206.916 126.662 204.429C116.013 212.547 105.858 221.752 98.978 231.289C77.4235 261.17 71.2502 284.009 68.9043 320.819C67.6123 341.093 69.298 349.024 72.9928 372.662C78.1827 396.967 100.583 439.995 131.878 434.936C162.507 428.099 169.466 392.597 169.037 364.367C168.819 359.402 168.515 354.919 168.204 350.81C172.226 361.444 177.108 371.661 182.938 379.713C204.546 409.556 224.243 422.516 258.342 436.134C272.496 441.786 285.146 444.473 308.649 448.245C340.322 451.907 380.874 442.673 385.759 411.187C387.984 374.993 357.321 362.166 330.482 353.852C327.248 352.952 324.212 352.159 321.35 351.438C331.805 350.788 342.048 349.281 350.782 346.419C385.691 334.981 404.038 320.153 427.458 291.759C440.357 276.12 443.63 268.708 454.461 247.401C464.976 221.163 471.508 176.624 443.232 162.224C409.982 149.743 388.069 174.266 371.91 197.358C369.152 201.552 366.753 205.399 364.582 208.942C367.189 198.68 368.925 188.35 368.917 179.056ZM250.741 205.083C246.625 201.749 244.245 198.608 240.508 195.758C232.93 208.297 220.536 220.738 207.906 229.034C202.266 232.736 198.571 234.858 194.02 238.098C203.453 249.054 211.789 264.367 215.766 279.123C217.591 285.904 217.943 288.665 219.725 294.237C234.343 287.262 252.575 284.959 268.753 285.765C274.474 286.053 278.627 287.27 283.403 287.45C280.429 271.851 280.45 256.132 286.704 239.616C288.438 235.042 292.042 228.943 293.489 224.809C279.138 222.17 263.255 215.212 250.741 205.083Z" fill="url(#paint1_linear_234_66)" fill-opacity="0.1"/>
</g>
<defs>
<filter id="filter0_iii_234_66" x="24" y="21.384" width="445.987" height="436.445" filterUnits="userSpaceOnUse" color-interpolation-filters="sRGB">
<feFlood flood-opacity="0" result="BackgroundImageFix"/>
<feBlend mode="normal" in="SourceGraphic" in2="BackgroundImageFix" result="shape"/>
<feColorMatrix in="SourceAlpha" type="matrix" values="0 0 0 0 0 0 0 0 0 0 0 0 0 0 0 0 0 0 127 0" result="hardAlpha"/>
<feOffset dy="-2.61598"/>
<feGaussianBlur stdDeviation="7.68443"/>
<feComposite in2="hardAlpha" operator="arithmetic" k2="-1" k3="1"/>
<feColorMatrix type="matrix" values="0 0 0 0 0.0765104 0 0 0 0 0.0588542 0 0 0 0 0.941667 0 0 0 1 0"/>
<feBlend mode="normal" in2="shape" result="effect1_innerShadow_234_66"/>
<feColorMatrix in="SourceAlpha" type="matrix" values="0 0 0 0 0 0 0 0 0 0 0 0 0 0 0 0 0 0 127 0" result="hardAlpha"/>
<feOffset dy="0.653994"/>
<feGaussianBlur stdDeviation="0.326997"/>
<feComposite in2="hardAlpha" operator="arithmetic" k2="-1" k3="1"/>
<feColorMatrix type="matrix" values="0 0 0 0 0 0 0 0 0 0 0 0 0 0 0 0 0 0 0.25 0"/>
<feBlend mode="normal" in2="effect1_innerShadow_234_66" result="effect2_innerShadow_234_66"/>
<feColorMatrix in="SourceAlpha" type="matrix" values="0 0 0 0 0 0 0 0 0 0 0 0 0 0 0 0 0 0 127 0" result="hardAlpha"/>
<feOffset dx="6.53994" dy="10.3004"/>
<feGaussianBlur stdDeviation="4.41446"/>
<feComposite in2="hardAlpha" operator="arithmetic" k2="-1" k3="1"/>
<feColorMatrix type="matrix" values="0 0 0 0 0.170833 0 0 0 0 0.533594 0 0 0 0 1 0 0 0 0.5 0"/>
<feBlend mode="normal" in2="effect2_innerShadow_234_66" result="effect3_innerShadow_234_66"/>
</filter>
<filter id="filter1_iif_234_66" x="0.456217" y="0.456217" width="486.535" height="472.088" filterUnits="userSpaceOnUse" color-interpolation-filters="sRGB">
<feFlood flood-opacity="0" result="BackgroundImageFix"/>
<feBlend mode="normal" in="SourceGraphic" in2="BackgroundImageFix" result="shape"/>
<feColorMatrix in="SourceAlpha" type="matrix" values="0 0 0 0 0 0 0 0 0 0 0 0 0 0 0 0 0 0 127 0" result="hardAlpha"/>
<feOffset dx="11.4449" dy="13.7339"/>
<feGaussianBlur stdDeviation="13.4069"/>
<feComposite in2="hardAlpha" operator="arithmetic" k2="-1" k3="1"/>
<feColorMatrix type="matrix" values="0 0 0 0 0.407843 0 0 0 0 0.584314 0 0 0 0 1 0 0 0 0.8 0"/>
<feBlend mode="normal" in2="shape" result="effect1_innerShadow_234_66"/>
<feColorMatrix in="SourceAlpha" type="matrix" values="0 0 0 0 0 0 0 0 0 0 0 0 0 0 0 0 0 0 127 0" result="hardAlpha"/>
<feOffset dx="19.9821" dy="8.56377"/>
<feGaussianBlur stdDeviation="8.27831"/>
<feComposite in2="hardAlpha" operator="arithmetic" k2="-1" k3="1"/>
<feColorMatrix type="matrix" values="0 0 0 0 1 0 0 0 0 1 0 0 0 0 1 0 0 0 0.5 0"/>
<feBlend mode="normal" in2="effect1_innerShadow_234_66" result="effect2_innerShadow_234_66"/>
<feGaussianBlur stdDeviation="11.7719" result="effect3_foregroundBlur_234_66"/>
</filter>
<linearGradient id="paint0_linear_234_66" x1="243.724" y1="24" x2="243.724" y2="437.348" gradientUnits="userSpaceOnUse">
<stop stopColor="#1877F2"/>
<stop offset="0.885788" stopColor="#335CFF"/>
</linearGradient>
<linearGradient id="paint1_linear_234_66" x1="243.724" y1="24" x2="243.724" y2="437.348" gradientUnits="userSpaceOnUse">
<stop stopColor="#335CFF"/>
<stop offset="0.885788" stopColor="#335CFF"/>
</linearGradient>
</defs>
</svg>
